<svg width="461" height="475" viewBox="0 0 461 475" fill="none" xmlns="http://www.w3.org/2000/svg">
<mask id="path-1-inside-1" fill="white">
<path d="M452.954 0H266.554C264.754 0 263.054 0.599988 261.654 1.79999L3.054 224.4C1.454 225.7 0.554001 227.7 0.454001 229.8C0.354001 231.9 1.154 233.9 2.654 235.4L189.054 418.5C190.554 419.9 192.454 420.6 194.354 420.6C196.054 420.6 197.854 420 199.254 418.9L457.854 197C459.454 195.6 460.454 193.5 460.454 191.3V7.5C460.454 3.4 457.054 0 452.954 0ZM445.554 187.8L194.754 402.9L19.054 230.4L269.354 14.9H445.554V187.8Z"/>
</mask>
<path d="M452.954 0H266.554C264.754 0 263.054 0.599988 261.654 1.79999L3.054 224.4C1.454 225.7 0.554001 227.7 0.454001 229.8C0.354001 231.9 1.154 233.9 2.654 235.4L189.054 418.5C190.554 419.9 192.454 420.6 194.354 420.6C196.054 420.6 197.854 420 199.254 418.9L457.854 197C459.454 195.6 460.454 193.5 460.454 191.3V7.5C460.454 3.4 457.054 0 452.954 0ZM445.554 187.8L194.754 402.9L19.054 230.4L269.354 14.9H445.554V187.8Z" fill="#065F46"/>
<path d="M261.654 1.79999L240.829 -22.4962L240.803 -22.4744L240.778 -22.4525L261.654 1.79999ZM3.054 224.4L23.233 249.236L23.5858 248.949L23.9303 248.652L3.054 224.4ZM2.654 235.4L-19.9734 258.027L-19.8724 258.128L-19.7704 258.229L2.654 235.4ZM189.054 418.5L166.63 441.329L166.921 441.615L167.22 441.894L189.054 418.5ZM199.254 418.9L219.024 444.062L219.568 443.635L220.092 443.185L199.254 418.9ZM457.854 197L478.692 221.285L478.81 221.184L478.926 221.082L457.854 197ZM460.454 7.5L492.454 7.5L460.454 7.5ZM445.554 187.8L466.387 212.09L477.554 202.512V187.8H445.554ZM194.754 402.9L172.335 425.734L193.293 446.31L215.587 427.19L194.754 402.9ZM19.054 230.4L-1.82473 206.15L-28.1964 228.855L-3.36452 253.234L19.054 230.4ZM269.354 14.9V-17.1H257.476L248.475 -9.35031L269.354 14.9ZM445.554 14.9H477.554V-17.1H445.554V14.9ZM452.954 -32H266.554V32H452.954V-32ZM266.554 -32C257.369 -32 248.219 -28.8304 240.829 -22.4962L282.479 26.0962C277.889 30.0304 272.139 32 266.554 32V-32ZM240.778 -22.4525L-17.8223 200.148L23.9303 248.652L282.53 26.0525L240.778 -22.4525ZM-17.125 199.564C-26.7144 207.356 -31.0368 218.345 -31.5098 228.278L32.4178 231.322C32.1448 237.055 29.6224 244.044 23.233 249.236L-17.125 199.564ZM-31.5098 228.278C-32.0541 239.709 -27.6141 250.387 -19.9734 258.027L25.2814 212.773C29.9221 217.413 32.7621 224.091 32.4178 231.322L-31.5098 228.278ZM-19.7704 258.229L166.63 441.329L211.478 395.671L25.0784 212.571L-19.7704 258.229ZM167.22 441.894C174.797 448.966 184.559 452.6 194.354 452.6V388.6C200.349 388.6 206.311 390.834 210.888 395.106L167.22 441.894ZM194.354 452.6C203.12 452.6 211.905 449.656 219.024 444.062L179.484 393.738C183.803 390.344 188.988 388.6 194.354 388.6V452.6ZM220.092 443.185L478.692 221.285L437.016 172.715L178.416 394.615L220.092 443.185ZM478.926 221.082C487.243 213.806 492.454 203.026 492.454 191.3H428.454C428.454 183.973 431.666 177.394 436.782 172.918L478.926 221.082ZM492.454 191.3V7.5H428.454V191.3H492.454ZM492.454 7.5C492.454 -14.2731 474.727 -32 452.954 -32V32C439.381 32 428.454 21.0731 428.454 7.5L492.454 7.5ZM424.721 163.51L173.921 378.61L215.587 427.19L466.387 212.09L424.721 163.51ZM217.173 380.066L41.4725 207.566L-3.36452 253.234L172.335 425.734L217.173 380.066ZM39.9327 254.65L290.233 39.1504L248.475 -9.35031L-1.82473 206.15L39.9327 254.65ZM269.354 46.9H445.554V-17.1H269.354V46.9ZM413.554 14.9V187.8H477.554V14.9H413.554Z" fill="#065F46" mask="url(#path-1-inside-1)"/>
<mask id="path-3-inside-2" fill="white">
<path d="M256.754 156.3C256.654 156.3 256.654 156.2 256.554 156.2C237.154 149.5 215.454 152.5 197.354 163.5L189.454 155.7C186.554 152.8 181.754 152.8 178.854 155.7C175.954 158.6 175.954 163.4 178.854 166.3L185.254 172.7C184.054 173.8 182.954 174.9 181.854 176L181.754 176.1C180.254 177.7 178.854 179.4 177.554 181L170.854 174.3C167.954 171.4 163.154 171.4 160.254 174.3C157.354 177.2 157.354 182 160.254 184.9L169.254 193.9C159.554 212.7 158.254 233.8 166.454 251.7C175.954 273.7 196.954 286.9 221.454 286.9C224.354 286.9 227.254 286.7 230.154 286.4C234.254 285.9 237.154 282.1 236.654 278C236.154 273.9 232.354 271 228.254 271.5C206.554 274.2 188.154 264.3 180.154 245.7C180.154 245.6 180.054 245.6 180.054 245.5C174.354 233.2 174.654 218.7 180.454 205.2L219.254 243.9C220.754 245.4 222.654 246.1 224.554 246.1C226.454 246.1 228.354 245.4 229.854 243.9C232.754 241 232.754 236.2 229.854 233.3L188.254 191.7C189.654 189.8 191.154 188 192.754 186.3C193.754 185.2 194.854 184.2 195.854 183.3L244.854 232.3C246.354 233.8 248.254 234.5 250.154 234.5C252.054 234.5 253.954 233.8 255.454 232.3C258.354 229.4 258.354 224.6 255.454 221.7L208.254 174.6C221.754 167.4 237.454 165.7 251.454 170.5C270.754 177.9 281.954 196.4 279.954 217.8C279.554 221.9 282.554 225.6 286.754 226C290.854 226.4 294.554 223.4 294.954 219.2C297.654 190.8 282.654 166.1 256.754 156.3Z"/>
</mask>
<path d="M256.754 156.3C256.654 156.3 256.654 156.2 256.554 156.2C237.154 149.5 215.454 152.5 197.354 163.5L189.454 155.7C186.554 152.8 181.754 152.8 178.854 155.7C175.954 158.6 175.954 163.4 178.854 166.3L185.254 172.7C184.054 173.8 182.954 174.9 181.854 176L181.754 176.1C180.254 177.7 178.854 179.4 177.554 181L170.854 174.3C167.954 171.4 163.154 171.4 160.254 174.3C157.354 177.2 157.354 182 160.254 184.9L169.254 193.9C159.554 212.7 158.254 233.8 166.454 251.7C175.954 273.7 196.954 286.9 221.454 286.9C224.354 286.9 227.254 286.7 230.154 286.4C234.254 285.9 237.154 282.1 236.654 278C236.154 273.9 232.354 271 228.254 271.5C206.554 274.2 188.154 264.3 180.154 245.7C180.154 245.6 180.054 245.6 180.054 245.5C174.354 233.2 174.654 218.7 180.454 205.2L219.254 243.9C220.754 245.4 222.654 246.1 224.554 246.1C226.454 246.1 228.354 245.4 229.854 243.9C232.754 241 232.754 236.2 229.854 233.3L188.254 191.7C189.654 189.8 191.154 188 192.754 186.3C193.754 185.2 194.854 184.2 195.854 183.3L244.854 232.3C246.354 233.8 248.254 234.5 250.154 234.5C252.054 234.5 253.954 233.8 255.454 232.3C258.354 229.4 258.354 224.6 255.454 221.7L208.254 174.6C221.754 167.4 237.454 165.7 251.454 170.5C270.754 177.9 281.954 196.4 279.954 217.8C279.554 221.9 282.554 225.6 286.754 226C290.854 226.4 294.554 223.4 294.954 219.2C297.654 190.8 282.654 166.1 256.754 156.3Z" fill="#065F46"/>
<path d="M256.754 156.3L268.079 126.371L262.606 124.3H256.754V156.3ZM256.554 156.2L246.108 186.447L251.184 188.2H256.554V156.2ZM197.354 163.5L174.871 186.271L192.637 203.812L213.973 190.846L197.354 163.5ZM189.454 155.7L166.827 178.327L166.899 178.399L166.971 178.471L189.454 155.7ZM178.854 166.3L201.481 143.673L201.481 143.673L178.854 166.3ZM185.254 172.7L206.877 196.289L231.514 173.705L207.881 150.073L185.254 172.7ZM181.854 176L159.227 153.373L159.223 153.376L181.854 176ZM181.754 176.1L159.123 153.476L158.76 153.839L158.409 154.214L181.754 176.1ZM177.554 181L154.927 203.627L180.015 228.716L202.39 201.179L177.554 181ZM170.854 174.3L193.481 151.673L193.481 151.673L170.854 174.3ZM169.254 193.9L197.692 208.573L208.409 187.801L191.881 171.273L169.254 193.9ZM166.454 251.7L195.832 239.014L195.693 238.692L195.547 238.373L166.454 251.7ZM230.154 286.4L233.447 318.23L233.738 318.2L234.028 318.165L230.154 286.4ZM228.254 271.5L224.38 239.735L224.342 239.74L224.303 239.745L228.254 271.5ZM180.154 245.7H148.154V252.29L150.758 258.344L180.154 245.7ZM180.054 245.5H212.054V238.446L209.088 232.045L180.054 245.5ZM180.454 205.2L203.052 182.543L169.666 149.243L151.053 192.568L180.454 205.2ZM219.254 243.9L241.881 221.273L241.867 221.258L241.852 221.243L219.254 243.9ZM229.854 233.3L252.481 210.673L252.481 210.673L229.854 233.3ZM188.254 191.7L162.492 172.718L146.169 194.87L165.627 214.327L188.254 191.7ZM192.754 186.3L216.056 208.232L216.246 208.03L216.432 207.825L192.754 186.3ZM195.854 183.3L218.481 160.673L197.014 139.205L174.447 159.515L195.854 183.3ZM255.454 221.7L278.081 199.073L278.069 199.061L278.057 199.049L255.454 221.7ZM208.254 174.6L193.195 146.365L155.046 166.711L185.651 197.251L208.254 174.6ZM251.454 170.5L262.91 140.621L262.375 140.416L261.832 140.23L251.454 170.5ZM279.954 217.8L311.803 220.907L311.809 220.842L311.815 220.778L279.954 217.8ZM286.754 226L289.861 194.151L289.825 194.148L289.788 194.144L286.754 226ZM294.954 219.2L326.81 222.234L326.81 222.229L294.954 219.2ZM256.754 124.3C258.085 124.3 259.488 124.383 260.946 124.577C261.673 124.673 262.407 124.796 263.144 124.947C263.882 125.098 264.617 125.276 265.347 125.48C266.077 125.685 266.795 125.914 267.499 126.166C268.203 126.418 268.886 126.69 269.547 126.98C270.874 127.561 272.077 128.196 273.155 128.842C274.228 129.486 275.155 130.128 275.935 130.716C276.711 131.3 277.351 131.837 277.841 132.27C278.087 132.487 278.302 132.684 278.482 132.852C278.662 133.019 278.814 133.164 278.93 133.277C279.046 133.389 279.138 133.48 279.193 133.535C279.222 133.563 279.244 133.585 279.258 133.599C279.27 133.611 279.28 133.621 279.277 133.618C279.277 133.618 279.276 133.617 279.275 133.616C279.274 133.615 279.273 133.614 279.271 133.612C279.267 133.608 279.26 133.602 279.253 133.594C279.238 133.579 279.214 133.555 279.184 133.526C279.126 133.468 279.03 133.374 278.912 133.258C278.792 133.142 278.637 132.994 278.454 132.824C278.271 132.653 278.052 132.453 277.803 132.233C277.306 131.795 276.659 131.252 275.876 130.662C275.089 130.069 274.155 129.422 273.073 128.774C271.988 128.122 270.777 127.484 269.441 126.898C268.776 126.607 268.088 126.333 267.38 126.079C266.671 125.825 265.948 125.595 265.213 125.389C264.478 125.183 263.738 125.004 262.995 124.852C262.253 124.7 261.514 124.576 260.781 124.479C259.312 124.284 257.898 124.2 256.554 124.2V188.2C255.223 188.2 253.82 188.117 252.362 187.923C251.635 187.826 250.901 187.704 250.164 187.553C249.426 187.402 248.691 187.224 247.961 187.02C247.231 186.815 246.513 186.586 245.809 186.334C245.105 186.082 244.422 185.81 243.761 185.52C242.434 184.939 241.231 184.304 240.153 183.658C239.08 183.014 238.153 182.372 237.373 181.784C236.597 181.2 235.957 180.663 235.467 180.23C235.221 180.013 235.006 179.816 234.825 179.648C234.646 179.481 234.494 179.336 234.378 179.223C234.262 179.111 234.17 179.02 234.115 178.965C234.086 178.937 234.064 178.915 234.05 178.901C234.038 178.889 234.028 178.879 234.031 178.882C234.031 178.882 234.032 178.883 234.033 178.884C234.034 178.885 234.035 178.886 234.037 178.888C234.041 178.892 234.048 178.898 234.055 178.906C234.07 178.921 234.094 178.945 234.124 178.974C234.182 179.032 234.278 179.126 234.396 179.242C234.516 179.358 234.671 179.506 234.854 179.676C235.037 179.847 235.256 180.047 235.505 180.267C236.002 180.705 236.649 181.248 237.432 181.838C238.219 182.431 239.153 183.078 240.235 183.726C241.32 184.378 242.531 185.016 243.867 185.602C244.532 185.893 245.22 186.167 245.928 186.421C246.637 186.675 247.36 186.905 248.095 187.111C248.83 187.317 249.57 187.496 250.312 187.648C251.055 187.8 251.794 187.923 252.527 188.021C253.996 188.216 255.41 188.3 256.754 188.3V124.3ZM267 125.953C237.73 115.844 206.158 120.703 180.735 136.154L213.973 190.846C224.75 184.297 236.578 183.156 246.108 186.447L267 125.953ZM219.837 140.729L211.937 132.929L166.971 178.471L174.871 186.271L219.837 140.729ZM212.081 133.073C196.685 117.676 171.623 117.676 156.227 133.073L201.481 178.327C191.885 187.924 176.423 187.924 166.827 178.327L212.081 133.073ZM156.227 133.073C140.83 148.469 140.83 173.531 156.227 188.927L201.481 143.673C211.078 153.269 211.078 168.731 201.481 178.327L156.227 133.073ZM156.227 188.927L162.627 195.327L207.881 150.073L201.481 143.673L156.227 188.927ZM163.631 149.111C161.839 150.754 160.261 152.338 159.227 153.373L204.481 198.627C205.647 197.462 206.269 196.846 206.877 196.289L163.631 149.111ZM159.223 153.376L159.123 153.476L204.385 198.724L204.485 198.624L159.223 153.376ZM158.409 154.214C156.062 156.717 154.039 159.195 152.718 160.821L202.39 201.179C203.669 199.605 204.446 198.683 205.099 197.986L158.409 154.214ZM200.181 158.373L193.481 151.673L148.227 196.927L154.927 203.627L200.181 158.373ZM193.481 151.673C178.085 136.276 153.023 136.276 137.627 151.673L182.881 196.927C173.285 206.524 157.823 206.524 148.227 196.927L193.481 151.673ZM137.627 151.673C122.23 167.069 122.23 192.131 137.627 207.527L182.881 162.273C192.478 171.869 192.478 187.331 182.881 196.927L137.627 151.673ZM137.627 207.527L146.627 216.527L191.881 171.273L182.881 162.273L137.627 207.527ZM140.816 179.227C127.247 205.526 124.519 236.994 137.361 265.027L195.547 238.373C191.989 230.606 191.861 219.874 197.692 208.573L140.816 179.227ZM137.076 264.386C151.929 298.782 184.934 318.9 221.454 318.9V254.9C208.974 254.9 199.979 248.618 195.832 239.014L137.076 264.386ZM221.454 318.9C225.795 318.9 229.855 318.602 233.447 318.23L226.861 254.57C224.653 254.798 222.913 254.9 221.454 254.9V318.9ZM234.028 318.165C256.122 315.47 271.003 295.315 268.419 274.126L204.889 281.874C203.305 268.885 212.386 256.33 226.28 254.635L234.028 318.165ZM268.419 274.126C265.724 252.032 245.569 237.151 224.38 239.735L232.128 303.265C219.139 304.849 206.584 295.768 204.889 281.874L268.419 274.126ZM224.303 239.745C215.238 240.873 211.351 237.242 209.55 233.056L150.758 258.344C164.957 291.358 197.87 307.527 232.205 303.255L224.303 239.745ZM212.154 245.7C212.154 244.356 212.07 242.941 211.875 241.471C211.777 240.738 211.653 240 211.501 239.257C211.349 238.514 211.17 237.774 210.964 237.038C210.759 236.303 210.528 235.58 210.274 234.871C210.02 234.162 209.746 233.475 209.454 232.809C208.869 231.473 208.23 230.263 207.578 229.177C206.929 228.095 206.282 227.161 205.689 226.374C205.099 225.591 204.556 224.945 204.118 224.448C203.897 224.198 203.698 223.98 203.527 223.796C203.357 223.614 203.208 223.459 203.092 223.339C202.977 223.22 202.883 223.125 202.825 223.067C202.795 223.037 202.771 223.013 202.757 222.998C202.749 222.99 202.743 222.984 202.739 222.98C202.737 222.978 202.735 222.976 202.734 222.975C202.733 222.974 202.732 222.973 202.732 222.973C202.729 222.971 202.74 222.981 202.752 222.993C202.765 223.006 202.788 223.029 202.816 223.057C202.87 223.112 202.961 223.205 203.073 223.32C203.186 223.437 203.332 223.588 203.499 223.768C203.667 223.948 203.864 224.163 204.081 224.41C204.513 224.9 205.051 225.539 205.635 226.315C206.223 227.095 206.865 228.022 207.509 229.096C208.156 230.174 208.791 231.376 209.373 232.703C209.662 233.365 209.935 234.048 210.187 234.752C210.439 235.456 210.669 236.174 210.873 236.905C211.078 237.635 211.255 238.37 211.406 239.108C211.557 239.846 211.68 240.579 211.777 241.307C211.97 242.765 212.054 244.168 212.054 245.5H148.054C148.054 246.844 148.138 248.259 148.333 249.729C148.431 250.462 148.555 251.2 148.707 251.943C148.859 252.686 149.038 253.426 149.244 254.162C149.449 254.897 149.68 255.62 149.934 256.329C150.188 257.037 150.462 257.725 150.754 258.391C151.339 259.727 151.978 260.937 152.63 262.023C153.279 263.105 153.926 264.039 154.519 264.826C155.109 265.609 155.652 266.255 156.09 266.752C156.311 267.002 156.51 267.22 156.681 267.404C156.851 267.586 157 267.741 157.116 267.861C157.231 267.98 157.325 268.075 157.383 268.133C157.413 268.163 157.437 268.187 157.451 268.202C157.459 268.21 157.465 268.216 157.469 268.22C157.471 268.222 157.473 268.224 157.474 268.225C157.475 268.226 157.476 268.227 157.476 268.227C157.479 268.229 157.468 268.219 157.456 268.207C157.443 268.194 157.42 268.171 157.392 268.143C157.338 268.088 157.247 267.995 157.135 267.88C157.022 267.763 156.876 267.612 156.709 267.432C156.541 267.252 156.344 267.037 156.127 266.79C155.695 266.3 155.157 265.661 154.573 264.885C153.985 264.105 153.343 263.178 152.699 262.104C152.052 261.026 151.417 259.824 150.835 258.497C150.546 257.835 150.273 257.152 150.021 256.448C149.769 255.744 149.539 255.026 149.335 254.295C149.13 253.565 148.953 252.83 148.802 252.092C148.651 251.354 148.528 250.621 148.431 249.893C148.238 248.435 148.154 247.032 148.154 245.7H212.154ZM209.088 232.045C207.722 229.098 207.134 224.166 209.855 217.832L151.053 192.568C142.174 213.234 140.986 237.302 151.02 258.955L209.088 232.045ZM157.856 227.857L196.656 266.557L241.852 221.243L203.052 182.543L157.856 227.857ZM196.627 266.527C204.444 274.345 214.625 278.1 224.554 278.1V214.1C230.683 214.1 237.064 216.455 241.881 221.273L196.627 266.527ZM224.554 278.1C234.483 278.1 244.664 274.345 252.481 266.527L207.227 221.273C212.044 216.455 218.425 214.1 224.554 214.1V278.1ZM252.481 266.527C267.878 251.131 267.878 226.069 252.481 210.673L207.227 255.927C197.63 246.331 197.63 230.869 207.227 221.273L252.481 266.527ZM252.481 210.673L210.881 169.073L165.627 214.327L207.227 255.927L252.481 210.673ZM214.016 210.682C214.664 209.802 215.344 208.988 216.056 208.232L169.452 164.368C166.964 167.012 164.644 169.798 162.492 172.718L214.016 210.682ZM216.432 207.825C216.267 208.007 216.217 208.046 216.373 207.897C216.543 207.735 216.775 207.522 217.261 207.085L174.447 159.515C173.499 160.367 171.286 162.343 169.076 164.774L216.432 207.825ZM173.227 205.927L222.227 254.927L267.481 209.673L218.481 160.673L173.227 205.927ZM222.227 254.927C230.044 262.745 240.225 266.5 250.154 266.5V202.5C256.283 202.5 262.664 204.855 267.481 209.673L222.227 254.927ZM250.154 266.5C260.083 266.5 270.264 262.745 278.081 254.927L232.827 209.673C237.644 204.855 244.025 202.5 250.154 202.5V266.5ZM278.081 254.927C293.478 239.531 293.478 214.469 278.081 199.073L232.827 244.327C223.23 234.731 223.23 219.269 232.827 209.673L278.081 254.927ZM278.057 199.049L230.857 151.949L185.651 197.251L232.851 244.351L278.057 199.049ZM223.313 202.835C229.751 199.402 236.26 199.119 241.076 200.77L261.832 140.23C238.648 132.281 213.757 135.398 193.195 146.365L223.313 202.835ZM239.998 200.379C245.26 202.397 248.822 207.019 248.093 214.822L311.815 220.778C315.086 185.781 296.248 153.403 262.91 140.621L239.998 200.379ZM248.105 214.693C245.989 236.389 261.876 255.775 283.72 257.856L289.788 194.144C303.232 195.425 313.119 207.411 311.803 220.907L248.105 214.693ZM283.647 257.849C305.343 259.965 324.729 244.078 326.81 222.234L263.098 216.166C264.379 202.722 276.365 192.835 289.861 194.151L283.647 257.849ZM326.81 222.229C330.817 180.083 308.034 141.489 268.079 126.371L245.429 186.229C257.274 190.711 264.491 201.517 263.098 216.171L326.81 222.229Z" fill="#065F46" mask="url(#path-3-inside-2)"/>
<mask id="path-5-inside-3" fill="white">
<path d="M448.054 239.9L194.754 457.2L13.254 275.9C10.354 273 5.554 273 2.654 275.9C-0.245996 278.8 -0.245996 283.6 2.654 286.5L189.054 472.7C190.554 474.2 192.454 474.9 194.354 474.9C196.054 474.9 197.854 474.3 199.254 473.2L457.854 251.3C460.954 248.6 461.354 243.8 458.654 240.7C455.954 237.6 451.154 237.2 448.054 239.9Z"/>
</mask>
<path d="M448.054 239.9L194.754 457.2L13.254 275.9C10.354 273 5.554 273 2.654 275.9C-0.245996 278.8 -0.245996 283.6 2.654 286.5L189.054 472.7C190.554 474.2 192.454 474.9 194.354 474.9C196.054 474.9 197.854 474.3 199.254 473.2L457.854 251.3C460.954 248.6 461.354 243.8 458.654 240.7C455.954 237.6 451.154 237.2 448.054 239.9Z" fill="#065F46"/>
<path d="M448.054 239.9L468.89 264.187L468.981 264.109L469.071 264.031L448.054 239.9ZM194.754 457.2L172.139 479.84L193.102 500.779L215.59 481.487L194.754 457.2ZM13.254 275.9L-9.37341 298.527L-9.36718 298.534L-9.36094 298.54L13.254 275.9ZM2.654 286.5L-19.9734 309.127L-19.9673 309.133L-19.9613 309.14L2.654 286.5ZM189.054 472.7L211.681 450.073L211.675 450.067L211.669 450.06L189.054 472.7ZM199.254 473.2L219.024 498.362L219.568 497.935L220.092 497.485L199.254 473.2ZM457.854 251.3L478.692 275.585L478.782 275.508L478.871 275.431L457.854 251.3ZM427.218 215.613L173.918 432.913L215.59 481.487L468.89 264.187L427.218 215.613ZM217.369 434.56L35.8689 253.26L-9.36094 298.54L172.139 479.84L217.369 434.56ZM35.8814 253.273C20.4846 237.876 -4.57664 237.876 -19.9734 253.273L25.2814 298.527C15.6846 308.124 0.223364 308.124 -9.37341 298.527L35.8814 253.273ZM-19.9734 253.273C-35.3702 268.669 -35.3702 293.731 -19.9734 309.127L25.2814 263.873C34.8782 273.469 34.8782 288.931 25.2814 298.527L-19.9734 253.273ZM-19.9613 309.14L166.439 495.34L211.669 450.06L25.2693 263.86L-19.9613 309.14ZM166.427 495.327C174.244 503.145 184.425 506.9 194.354 506.9V442.9C200.483 442.9 206.864 445.255 211.681 450.073L166.427 495.327ZM194.354 506.9C203.12 506.9 211.905 503.956 219.024 498.362L179.484 448.038C183.803 444.644 188.988 442.9 194.354 442.9V506.9ZM220.092 497.485L478.692 275.585L437.016 227.015L178.416 448.915L220.092 497.485ZM478.871 275.431C494.891 261.478 497.443 236.513 482.785 219.683L434.523 261.717C425.265 251.087 427.017 235.722 436.837 227.169L478.871 275.431ZM482.785 219.683C468.832 203.663 443.867 201.111 427.037 215.769L469.071 264.031C458.441 273.289 443.076 271.537 434.523 261.717L482.785 219.683Z" fill="#065F46" mask="url(#path-5-inside-3)"/>
<mask id="path-7-inside-4" fill="white">
<path d="M375.254 128.9C399.554 128.9 419.254 109.2 419.254 84.9C419.254 60.6 399.554 40.9 375.254 40.9C351.454 40.9 332.054 60.7 332.054 84.9C332.054 109.2 351.454 128.9 375.254 128.9ZM375.254 56C391.254 56 404.254 69 404.254 85C404.254 101 391.254 114 375.254 114C359.754 114 347.054 101 347.054 85C347.054 69 359.654 56 375.254 56Z"/>
</mask>
<path d="M375.254 128.9C399.554 128.9 419.254 109.2 419.254 84.9C419.254 60.6 399.554 40.9 375.254 40.9C351.454 40.9 332.054 60.7 332.054 84.9C332.054 109.2 351.454 128.9 375.254 128.9ZM375.254 56C391.254 56 404.254 69 404.254 85C404.254 101 391.254 114 375.254 114C359.754 114 347.054 101 347.054 85C347.054 69 359.654 56 375.254 56Z" fill="#065F46"/>
<path d="M332.054 84.9H364.054H332.054ZM375.254 160.9C417.227 160.9 451.254 126.873 451.254 84.9H387.254C387.254 91.5269 381.881 96.9 375.254 96.9V160.9ZM451.254 84.9C451.254 42.9269 417.227 8.90002 375.254 8.90002V72.9C381.881 72.9 387.254 78.2731 387.254 84.9H451.254ZM375.254 8.90002C333.211 8.90002 300.054 43.6024 300.054 84.9H364.054C364.054 77.7976 369.697 72.9 375.254 72.9V8.90002ZM300.054 84.9C300.054 126.345 333.258 160.9 375.254 160.9V96.9C369.65 96.9 364.054 92.0547 364.054 84.9L300.054 84.9ZM375.254 88C373.581 88 372.254 86.6731 372.254 85H436.254C436.254 51.3269 408.927 24 375.254 24V88ZM372.254 85C372.254 83.3269 373.581 82 375.254 82V146C408.927 146 436.254 118.673 436.254 85H372.254ZM375.254 82C376.67 82 377.737 82.6306 378.267 83.1748C378.79 83.7119 379.054 84.4016 379.054 85H315.054C315.054 117.867 341.286 146 375.254 146V82ZM379.054 85C379.054 85.525 378.819 86.2189 378.257 86.7971C377.675 87.3961 376.583 88 375.254 88V24C341.113 24 315.054 52.2076 315.054 85H379.054Z" fill="#065F46" mask="url(#path-7-inside-4)"/>
</svg>
